<svg width="113" height="24" viewBox="0 0 113 24" fill="none" xmlns="http://www.w3.org/2000/svg">
<rect width="113" height="24" rx="12" fill="#50AB75"/>
<path d="M24.0069 14.7461V15.6602H14.3975V14.7461H18.6045V12.25H19.7061V14.7461H24.0069ZM19.7295 7.96094C19.7295 9.625 21.5577 11.1836 23.585 11.5234L23.1045 12.4375C21.4053 12.0977 19.8409 11.0488 19.1436 9.60156C18.4522 11.043 16.9053 12.1094 15.2178 12.4375L14.7256 11.5234C16.7412 11.1836 18.5577 9.625 18.5577 7.96094V7.16406H19.7295V7.96094ZM29.3098 6.61328C31.677 6.61328 33.0598 7.25781 33.0598 8.41797C33.0598 9.58984 31.677 10.2344 29.3098 10.2344C26.9427 10.2344 25.5598 9.58984 25.5598 8.41797C25.5598 7.25781 26.9427 6.61328 29.3098 6.61328ZM29.3098 7.44531C27.6341 7.45703 26.7083 7.79688 26.72 8.41797C26.7083 9.07422 27.6341 9.40234 29.3098 9.40234C30.9856 9.40234 31.9114 9.07422 31.9114 8.41797C31.9114 7.79688 30.9856 7.45703 29.3098 7.44531ZM34.1028 10.8555V11.7344H29.8606V12.6367H32.8958V15.0977H26.7786V16.0352H33.1887V16.8906H25.6887V14.2891H31.7942V13.4688H25.677V12.6367H28.7473V11.7344H24.5286V10.8555H34.1028ZM39.0894 7.67969V10.4102H40.4956V6.69531H41.562V16.4805H40.4956V11.3242H39.0894V14.2305H35.0112V7.67969H39.0894ZM36.0659 8.55859V13.3398H38.0464V8.55859H36.0659ZM43.6948 6.49609V16.9961H42.6284V6.49609H43.6948ZM53.4861 6.49609V17.0195H52.3728V6.49609H53.4861ZM47.8728 7.28125C49.4314 7.28125 50.5798 8.71094 50.5798 10.9609C50.5798 13.2227 49.4314 14.6523 47.8728 14.6523C46.2908 14.6523 45.1541 13.2227 45.1541 10.9609C45.1541 8.71094 46.2908 7.28125 47.8728 7.28125ZM47.8728 8.27734C46.9002 8.27734 46.2322 9.30859 46.2322 10.9609C46.2322 12.625 46.9002 13.6562 47.8728 13.6562C48.8337 13.6562 49.5017 12.625 49.5017 10.9609C49.5017 9.30859 48.8337 8.27734 47.8728 8.27734ZM63.4414 12.0859V12.9766H56.1289V7.36328H63.3359V8.26562H57.2539V9.68359H63.1133V10.5625H57.2539V12.0859H63.4414ZM64.5312 14.7578V15.6719H54.9219V14.7578H64.5312ZM68.4748 7.24609C70.1389 7.23438 71.3225 8.26562 71.3342 9.74219C71.3225 11.2188 70.1389 12.25 68.4748 12.25C66.8225 12.25 65.6037 11.2188 65.6155 9.74219C65.6037 8.26562 66.8225 7.23438 68.4748 7.24609ZM68.4748 8.20703C67.4553 8.20703 66.7053 8.81641 66.717 9.74219C66.7053 10.668 67.4553 11.2773 68.4748 11.2773C69.4944 11.2773 70.2444 10.668 70.2444 9.74219C70.2444 8.81641 69.4944 8.20703 68.4748 8.20703ZM73.7366 6.49609V17.0195H72.6233V6.49609H73.7366ZM65.1116 13.832C67.0217 13.832 69.6702 13.8086 71.967 13.4805L72.0491 14.2891C69.6702 14.7461 67.1272 14.7578 65.2522 14.7578L65.1116 13.832ZM87.4831 14.7695V15.6836H77.8737V14.7695H82.1159V12.2852H83.2292V14.7695H87.4831ZM83.2409 8.40625C83.2409 10.0117 85.0573 11.4414 87.0612 11.7578L86.6159 12.6367C84.9226 12.3145 83.3581 11.3301 82.6784 9.95312C81.9929 11.3477 80.4402 12.3613 78.7761 12.6836L78.3191 11.8047C80.2761 11.4766 82.0808 10.0117 82.0808 8.40625V8.3125H78.6706V7.39844H86.6511V8.3125H83.2409V8.40625ZM96.7588 6.50781V14.2188H95.6455V10.2812H93.5947C93.3545 11.5469 92.2705 12.4023 90.9111 12.4023C89.3291 12.4023 88.1572 11.3125 88.1572 9.77734C88.1572 8.24219 89.3291 7.16406 90.9111 7.16406C92.3056 7.16406 93.4072 8.05469 93.6181 9.36719H95.6455V6.50781H96.7588ZM97.04 15.8711V16.7734H89.9384V13.4336H91.0517V15.8711H97.04ZM90.9111 8.13672C89.9384 8.13672 89.2236 8.79297 89.2236 9.77734C89.2236 10.7617 89.9384 11.4414 90.9111 11.4414C91.8603 11.4414 92.5752 10.7617 92.5752 9.77734C92.5752 8.79297 91.8603 8.13672 90.9111 8.13672Z" fill="white"/>
</svg>
