<svg width="190" height="200" viewBox="0 0 190 200" fill="none" xmlns="http://www.w3.org/2000/svg">
<g clip-path="url(#clip0_1129_16)">
<path d="M128.008 50.3611C178.221 39.8968 186.817 105.473 145.465 110.665C99.8028 116.4 92.9689 57.6593 128.008 50.3611Z" fill="white"/>
<path d="M42.6938 46.9265C92.9067 36.4623 101.503 102.038 60.1511 107.23C14.4888 112.966 7.65497 54.2247 42.6938 46.9265Z" fill="white"/>
<path d="M180.927 0.0122284C182.046 0.17068 181.964 0.499991 182.298 1.39152C185.2 9.14514 183.823 29.531 181.994 37.863C180.099 46.4929 175.6 57.7448 167.828 62.5347C162.497 46.1999 155.551 30.6325 141.17 20.3933C148.54 13.3288 158.21 6.86668 167.828 3.38362C169.878 2.64099 179.362 -0.209222 180.927 0.0122284Z" fill="#EAAB5D"/>
<path d="M8.70373 0.00585938C23.6555 2.47426 38.0351 9.67044 48.7656 20.3869C34.347 30.7397 27.8238 46.2908 22.108 62.5283C8.71986 52.4055 5.44922 30.1469 6.11435 14.2579C6.18931 12.4662 7.36492 0.359034 8.70373 0.00585938Z" fill="#EAAB5D"/>
<path d="M38.1025 200C41.2792 191.342 45.7948 183.188 51.6595 176.095C56.064 178.169 60.294 181.218 64.7592 183.144C81.7111 190.458 100.072 191.142 117.769 185.903C125.031 183.752 132.19 180.151 138.638 176.249L134.373 170.885C140.175 174.826 148.945 188.916 151.434 195.557C151.713 196.301 153.199 199.725 152.5 200.001H38.1025V200Z" fill="#EAAB5D"/>
<path d="M134.373 170.884L138.638 176.248C132.191 180.15 125.032 183.751 117.77 185.902C100.072 191.141 81.7119 190.457 64.76 183.143C60.2948 181.217 56.0648 178.168 51.6603 176.094C45.7956 183.187 41.2801 191.341 38.1033 199.999C37.2731 199.571 39.779 193.835 40.2363 192.797C43.9577 184.332 50.183 176.274 56.5355 169.658C70.2073 174.665 84.7292 179.087 99.4913 178.239C111.19 177.567 122.637 173.32 133.612 169.964C133.902 170.082 134.294 170.829 134.374 170.883L134.373 170.884Z" fill="#D19A57"/>
<path d="M139.248 126.91L174.892 143.459C158.827 160.723 129.448 174.793 106.192 178.092C76.4698 182.308 36.2988 165.346 15.8618 143.766L50.8967 126.603C54.3391 139.952 74.6888 144.647 86.3889 142.846C88.8588 142.466 94.3535 139.534 94.919 139.474C95.2653 139.438 100.113 141.918 101.317 142.233C114.03 145.559 134.634 140.973 139.247 126.909L139.248 126.91Z" fill="#F7E1C0"/>
<path d="M56.9909 123.232C61.0349 128.982 61.7645 132.383 69.3296 135.185C73.8157 136.846 88.1375 138.512 91.2648 134.266C92.4205 132.697 91.3445 126.296 91.7222 124.152C94.2062 124.878 96.2453 124.89 98.7293 124.152C99.107 126.296 98.031 132.697 99.1867 134.266C102.451 138.696 117.41 136.812 122.036 134.879C128.903 132.008 129.647 128.662 133.155 123.232C136.192 118.533 141.165 121.066 139.249 126.91C134.635 140.974 114.031 145.561 101.319 142.234C100.115 141.919 95.267 139.439 94.9207 139.476C94.3552 139.535 88.8605 142.467 86.3907 142.847C74.6915 144.648 54.3418 139.953 50.8984 126.604C49.5255 121.28 53.7639 118.645 56.9919 123.232H56.9909Z" fill="#795646"/>
<path d="M91.7222 124.152C91.3446 126.296 92.4215 132.695 91.2649 134.266C88.1375 138.511 73.8158 136.847 69.3296 135.185C61.7655 132.383 61.0359 128.981 56.991 123.232L76.7932 113.731C79.5002 116.501 88.1793 123.116 91.7213 124.152H91.7222Z" fill="#F7E1C0"/>
<path d="M133.155 123.232C129.646 128.662 128.902 132.008 122.036 134.878C117.41 136.811 102.451 138.696 99.1868 134.266C98.0311 132.697 99.1071 126.296 98.7295 124.152C102.28 123.096 110.955 116.51 113.658 113.731L133.155 123.232Z" fill="#F7E1C0"/>
<path d="M113.656 95.3431C114.354 95.7707 119.942 101.633 120.054 102.086C120.869 105.353 115.896 111.431 113.656 113.732C110.954 116.511 102.279 123.097 98.7284 124.153C96.2443 124.891 94.2053 124.879 91.7212 124.153C88.1792 123.117 79.5002 116.502 76.7932 113.732C74.1298 111.008 69.3325 105.527 70.6997 101.473C71.1798 100.051 74.8148 96.4675 76.1831 95.6495C84.028 90.9599 105.823 90.5408 113.656 95.3431H113.656Z" fill="#BB7451"/>
<path d="M90.6558 98.1004C97.3944 97.5907 109.057 98.0584 113.657 103.464C113.823 106.515 99.3006 117.951 96.14 118.328C91.2516 118.911 78.9101 108.274 76.7942 103.464C76.8986 100.363 88.2514 98.2827 90.6558 98.1004Z" fill="#E8A88B"/>
<path d="M99.3387 6.7693C99.741 6.78553 100.155 6.7483 100.557 6.7693C101.099 8.12569 106.02 7.38116 106.346 7.84219C107.4 9.33698 104.971 39.9715 105.432 44.3137C110.443 51.3562 112.194 42.5144 113.048 38.1837C114.934 28.6375 114.997 18.5959 115.791 8.91508C150.463 16.3947 156.099 32.7152 168.8 61.7825C175.436 76.969 189.051 90.8039 189.822 106.988L163.469 108.52C160.393 109.404 160.319 113.463 163.164 114.65H189.822C189.506 117.274 188.784 120.403 187.994 122.925L162.861 122.005C160.045 123.572 160.396 127.148 163.47 128.135L184.643 130.281C181.742 135.827 179.089 138.952 174.894 143.459L139.25 126.91C141.166 121.065 136.193 118.533 133.156 123.232L113.659 113.731C115.897 111.429 120.871 105.352 120.057 102.084C143.735 119.583 175.711 96.4413 165.45 68.2188C154.399 37.822 106.93 47.1229 109.089 81.0906C109.413 86.1783 111.884 90.7084 113.659 95.3417C105.826 90.5395 84.0311 90.9585 76.1862 95.6481C90.7926 72.4627 70.9827 43.5205 44.0452 50.289C33.4069 52.9617 23.9118 63.9588 22.8719 74.9607C20.33 101.851 49.669 117.452 70.7028 101.472C69.3355 105.526 74.1329 111.006 76.7963 113.731L56.994 123.232C53.767 118.645 49.5276 121.279 50.9006 126.603L15.8657 143.767C11.2828 138.927 8.95151 136.307 5.81181 130.281C9.19631 129.441 27.7176 129.162 28.9653 126.757C29.6893 125.362 29.0821 122.46 27.5943 122.006C25.7241 121.437 7.91253 122.352 4.74531 122.619C4.51759 122.638 3.00609 123.001 2.76509 123.232C1.67772 119.957 1.09608 118.161 0.632103 114.651H26.9851C32.0149 111.128 28.8515 108.927 24.243 108.214C16.3487 106.995 7.97895 107.668 0.0229492 106.989C0.0504655 106.348 0.240233 104.981 0.327526 104.23C1.60466 103.232 1.58948 100.021 2.15499 98.254C5.12105 88.9893 12.2022 81.8457 16.7785 73.4287C24.2866 59.6205 26.9016 43.3343 37.1899 30.8281C46.1687 19.9141 59.3633 13.6323 72.6821 9.83429C74.1983 16.6286 74.3938 23.6806 75.5761 30.5217C76.0391 33.1992 78.0544 45.9097 80.2984 46.6122C84.7447 48.0039 84.7532 43.6131 84.7162 40.6359C84.5853 30.1752 82.2938 18.7228 81.9741 8.14859C82.05 7.7601 88.9983 8.33377 89.5904 6.7693C89.6919 6.76358 89.7934 6.77408 89.895 6.7693C90.7005 21.4843 90.4842 36.394 92.0279 51.0555C92.5346 55.8692 92.842 62.0994 95.2265 66.2268C96.905 66.0769 98.5683 48.0268 98.7296 45.8457C99.6917 32.8766 99.1642 19.7652 99.3387 6.7693Z" fill="#EAAB5D"/>
<path d="M99.3386 6.76946C99.163 19.7653 99.6915 32.8767 98.7294 45.8459C98.5672 48.027 96.9038 66.0771 95.2263 66.2269C92.8419 62.1005 92.5344 55.8703 92.0278 51.0557C90.485 36.3941 90.7013 21.4835 89.8948 6.76946C92.8533 6.62437 96.3715 6.6511 99.3395 6.76946H99.3386Z" fill="#C57E41"/>
<path d="M89.5893 6.76953C88.9972 8.334 82.0489 7.76033 81.973 8.14882C82.2927 18.7221 84.5842 30.1755 84.7151 40.6361C84.7521 43.6133 84.7436 48.0041 80.2973 46.6124C78.0543 45.9099 76.038 33.1994 75.5749 30.522C74.3927 23.6809 74.1972 16.6288 72.681 9.83452C59.3622 13.6326 46.1676 19.9143 37.1888 30.8284C26.9005 43.3346 24.2846 59.6207 16.7774 73.4289C12.2011 81.8459 5.11994 88.9886 2.15388 98.2542C1.58837 100.021 1.60355 103.232 0.326416 104.23C1.86828 90.9683 10.5909 83.3941 16.4728 72.5097C22.3338 61.6643 24.9355 49.1696 31.0963 38.4904C43.0497 17.7704 66.5202 8.0381 89.5893 6.76953Z" fill="#C57E41"/>
<path d="M115.789 8.91531C114.996 18.5961 114.934 28.6377 113.047 38.1839C112.192 42.5137 110.442 51.3555 105.431 44.3139C104.97 39.9727 107.399 9.33816 106.345 7.84242C106.02 7.38234 101.098 8.12591 100.556 6.76953C105.632 7.03298 110.826 7.84433 115.789 8.91531H115.789Z" fill="#C57E41"/>
<path d="M0.630136 114.651C0.284759 112.033 -0.0947757 109.666 0.0209825 106.989C7.97699 107.669 16.3467 106.996 24.241 108.215C28.8486 108.927 32.012 111.128 26.9832 114.651H0.630136Z" fill="#C57E41"/>
<path d="M189.821 106.989C189.95 109.709 190.151 111.908 189.821 114.651H163.163C160.318 113.465 160.392 109.406 163.468 108.521L189.821 106.989Z" fill="#C57E41"/>
<path d="M187.992 122.926C187.185 125.501 185.885 127.903 184.641 130.282L163.468 128.136C160.394 127.15 160.043 123.572 162.858 122.006L187.992 122.925V122.926Z" fill="#C57E41"/>
<path d="M5.80966 130.281C4.35034 127.48 3.76396 126.247 2.76294 123.232C3.00394 123 4.51544 122.639 4.74316 122.619C7.91038 122.352 25.722 121.437 27.5921 122.007C29.0799 122.459 29.6872 125.361 28.9632 126.757C27.7155 129.162 9.19416 129.442 5.80966 130.281Z" fill="#C57E41"/>
<path d="M52.2696 61.3234C76.0996 58.3109 78.3958 93.4002 58.363 96.2619C34.717 99.64 31.7548 63.9168 52.2696 61.3234Z" fill="#151515"/>
<path d="M59.2767 66.8399C65.4119 65.3508 66.4623 74.6823 61.4097 75.4211C55.8306 76.2372 54.9956 67.8784 59.2767 66.8399Z" fill="white"/>
<path d="M132.393 61.3237C156.077 58.4744 157.939 93.6573 137.877 96.2622C114.048 99.3558 111.847 63.795 132.393 61.3237Z" fill="#151515"/>
<path d="M139.096 66.8398C145.501 65.5283 145.893 74.8807 140.923 75.421C135.466 76.0147 134.775 67.7246 139.096 66.8398Z" fill="white"/>
</g>
<defs>
<clipPath id="clip0_1129_16">
<rect width="190" height="200" fill="white"/>
</clipPath>
</defs>
</svg>
