<svg width="85" height="24" viewBox="0 0 85 24" fill="none" xmlns="http://www.w3.org/2000/svg">
<rect width="85" height="24" rx="12" fill="#50AB75"/>
<path d="M28.9097 7.49609V9.96875H30.4331V10.8945H28.9097V13.4258H27.7964V7.49609H28.9097ZM26.0152 8.15234C26.0034 10.8477 24.187 12.7344 21.0581 13.5781L20.6128 12.6875C23.1206 12.0254 24.603 10.707 24.8081 9.06641H21.105V8.15234H26.0152ZM28.9097 13.8711V17.8555H22.1831V13.8711H28.9097ZM23.2964 14.7969V16.9648H27.8081V14.7969H23.2964ZM39.5447 7.49609V13.7422H38.4314V11.082H36.4744V10.168H38.4314V7.49609H39.5447ZM36.0291 14.0352C38.2322 14.0352 39.5798 14.7617 39.5798 16.0156C39.5798 17.2695 38.2322 17.9844 36.0291 17.9961C33.8259 17.9844 32.4666 17.2695 32.4783 16.0156C32.4666 14.7617 33.8259 14.0352 36.0291 14.0352ZM36.0291 14.9023C34.4939 14.9023 33.5798 15.3008 33.5798 16.0156C33.5798 16.7188 34.4939 17.1289 36.0291 17.1172C37.5642 17.1289 38.4783 16.7188 38.4783 16.0156C38.4783 15.3008 37.5642 14.9023 36.0291 14.9023ZM34.5525 9.34766C34.5525 10.6836 35.5017 11.9727 37.0837 12.5117L36.5095 13.3906C35.3318 12.9805 34.4646 12.1426 34.0134 11.1055C33.5505 12.2832 32.6306 13.2266 31.3767 13.6836L30.7908 12.793C32.4197 12.2305 33.4158 10.8125 33.4158 9.35938V9.125H31.1423V8.22266H36.8025V9.125H34.5525V9.34766ZM46.5881 7.84766C48.1702 7.85938 49.3303 8.83203 49.342 10.2031C49.3303 11.5859 48.1702 12.5469 46.5881 12.5469C44.9944 12.5469 43.8225 11.5859 43.8225 10.2031C43.8225 8.83203 44.9944 7.85938 46.5881 7.84766ZM46.5881 8.78516C45.6155 8.77344 44.9006 9.34766 44.9123 10.2031C44.9006 11.0703 45.6155 11.6445 46.5881 11.6445C47.5491 11.6445 48.2639 11.0703 48.2639 10.2031C48.2639 9.34766 47.5491 8.77344 46.5881 8.78516ZM52.3186 7.49609V12.8398H51.2053V7.49609H52.3186ZM52.3186 13.3203V15.9688H46.5295V16.9766H52.6702V17.8672H45.4514V15.1367H51.217V14.2109H45.4163V13.3203H52.3186ZM62.4731 7.49609V17.9961H61.3481V7.49609H62.4731ZM59.3442 8.62109C59.3442 11.6914 58.0317 14.3633 54.4341 16.0859L53.8481 15.1836C56.643 13.8535 58.0024 11.9609 58.2192 9.51172H54.352V8.62109H59.3442Z" fill="white"/>
</svg>
