<svg width="85" height="24" viewBox="0 0 85 24" fill="none" xmlns="http://www.w3.org/2000/svg">
<rect width="85" height="24" rx="12" fill="#50AB75"/>
<path d="M28.9097 7.49609V9.96875H30.4331V10.8945H28.9097V13.4258H27.7964V7.49609H28.9097ZM26.0152 8.15234C26.0034 10.8477 24.187 12.7344 21.0581 13.5781L20.6128 12.6875C23.1206 12.0254 24.603 10.707 24.8081 9.06641H21.105V8.15234H26.0152ZM28.9097 13.8711V17.8555H22.1831V13.8711H28.9097ZM23.2964 14.7969V16.9648H27.8081V14.7969H23.2964ZM39.5447 7.49609V13.7422H38.4314V11.082H36.4744V10.168H38.4314V7.49609H39.5447ZM36.0291 14.0352C38.2322 14.0352 39.5798 14.7617 39.5798 16.0156C39.5798 17.2695 38.2322 17.9844 36.0291 17.9961C33.8259 17.9844 32.4666 17.2695 32.4783 16.0156C32.4666 14.7617 33.8259 14.0352 36.0291 14.0352ZM36.0291 14.9023C34.4939 14.9023 33.5798 15.3008 33.5798 16.0156C33.5798 16.7188 34.4939 17.1289 36.0291 17.1172C37.5642 17.1289 38.4783 16.7188 38.4783 16.0156C38.4783 15.3008 37.5642 14.9023 36.0291 14.9023ZM34.5525 9.34766C34.5525 10.6836 35.5017 11.9727 37.0837 12.5117L36.5095 13.3906C35.3318 12.9805 34.4646 12.1426 34.0134 11.1055C33.5505 12.2832 32.6306 13.2266 31.3767 13.6836L30.7908 12.793C32.4197 12.2305 33.4158 10.8125 33.4158 9.35938V9.125H31.1423V8.22266H36.8025V9.125H34.5525V9.34766ZM53.2209 15.7578V16.6836H43.6116V15.7578H45.9084V13.0156C45.0471 12.541 44.5256 11.7852 44.5256 10.8477C44.5256 9.19531 46.1428 8.10547 48.3928 8.10547C50.6545 8.10547 52.2717 9.19531 52.2717 10.8477C52.2717 11.7734 51.7678 12.5176 50.9241 12.9922V15.7578H53.2209ZM48.3928 8.99609C46.7405 8.99609 45.6038 9.71094 45.6038 10.8477C45.6038 11.9727 46.7405 12.7109 48.3928 12.7109C50.0334 12.7109 51.1936 11.9727 51.1936 10.8477C51.1936 9.71094 50.0334 8.99609 48.3928 8.99609ZM47.01 15.7578H49.7991V13.4141C49.3713 13.5254 48.8967 13.5781 48.3928 13.5781C47.9006 13.5781 47.4319 13.5254 47.01 13.4258V15.7578ZM62.4497 7.50781V15.1367H61.3364V7.50781H62.4497ZM62.7661 16.8711V17.7734H55.5825V14.3633H56.7075V16.8711H62.7661ZM56.7544 8.21094C58.3364 8.21094 59.5434 9.28906 59.5434 10.8125C59.5434 12.3594 58.3364 13.4258 56.7544 13.4258C55.1723 13.4258 53.9536 12.3594 53.9536 10.8125C53.9536 9.28906 55.1723 8.21094 56.7544 8.21094ZM56.7544 9.18359C55.77 9.18359 55.0434 9.85156 55.0434 10.8125C55.0434 11.7969 55.77 12.4531 56.7544 12.4531C57.7153 12.4531 58.4536 11.7969 58.4536 10.8125C58.4536 9.85156 57.7153 9.18359 56.7544 9.18359Z" fill="white"/>
</svg>
