<svg width="93" height="24" viewBox="0 0 93 24" fill="none" xmlns="http://www.w3.org/2000/svg">
<rect width="93" height="24" rx="12" fill="#50AB75"/>
<path d="M27.8441 6.49609V8.96875H29.3676V9.89453H27.8441V12.4258H26.7309V6.49609H27.8441ZM24.9496 7.15234C24.9379 9.84766 23.1215 11.7344 19.9926 12.5781L19.5473 11.6875C22.0551 11.0254 23.5375 9.70703 23.7426 8.06641H20.0395V7.15234H24.9496ZM27.8441 12.8711V16.8555H21.1176V12.8711H27.8441ZM22.2309 13.7969V15.9648H26.7426V13.7969H22.2309ZM38.4791 6.49609V12.7422H37.3659V10.082H35.4088V9.16797H37.3659V6.49609H38.4791ZM34.9635 13.0352C37.1666 13.0352 38.5143 13.7617 38.5143 15.0156C38.5143 16.2695 37.1666 16.9844 34.9635 16.9961C32.7604 16.9844 31.401 16.2695 31.4127 15.0156C31.401 13.7617 32.7604 13.0352 34.9635 13.0352ZM34.9635 13.9023C33.4284 13.9023 32.5143 14.3008 32.5143 15.0156C32.5143 15.7188 33.4284 16.1289 34.9635 16.1172C36.4987 16.1289 37.4127 15.7188 37.4127 15.0156C37.4127 14.3008 36.4987 13.9023 34.9635 13.9023ZM33.487 8.34766C33.487 9.68359 34.4362 10.9727 36.0182 11.5117L35.444 12.3906C34.2663 11.9805 33.3991 11.1426 32.9479 10.1055C32.485 11.2832 31.5651 12.2266 30.3112 12.6836L29.7252 11.793C31.3541 11.2305 32.3502 9.8125 32.3502 8.35938V8.125H30.0768V7.22266H35.737V8.125H33.487V8.34766ZM50.8663 7.5625V8.6875C50.8663 10.0469 50.8663 11.5234 50.4796 13.7617L49.3429 13.6562C49.7648 11.5586 49.7648 10.0117 49.7648 8.6875V8.47656H43.5773V7.5625H50.8663ZM52.1202 14.582V15.5078H42.546V14.582H52.1202ZM56.9662 7.59766V11.3945H54.0834V13.6094C55.2259 13.6035 56.3041 13.5508 57.5638 13.3516L57.6576 14.2422C56.1927 14.5 55.0326 14.5352 53.7201 14.5469H53.0052V10.4805H55.888V8.51172H52.9935V7.59766H56.9662ZM61.6888 6.49609V16.9961H60.6224V11.4883H59.263V16.457H58.2435V6.70703H59.263V10.5859H60.6224V6.49609H61.6888ZM72.4176 14.7461V15.6836H62.8082V14.7461H72.4176ZM71.5387 7.50391V8.41797H69.9332V11.9219H71.5035V12.8125H63.652V11.9219H65.2223V8.41797H63.6285V7.50391H71.5387ZM66.3238 11.9219H68.8434V8.41797H66.3238V11.9219Z" fill="white"/>
</svg>
