<svg width="275" height="42" viewBox="0 0 275 42" fill="none" xmlns="http://www.w3.org/2000/svg">
<rect width="275" height="42" rx="11" fill="#AAD786"/>
<path d="M96.5938 14.7969C98.7031 14.8125 100.25 16.1094 100.266 17.9375C100.25 19.7812 98.7031 21.0625 96.5938 21.0625C94.4688 21.0625 92.9062 19.7812 92.9062 17.9375C92.9062 16.1094 94.4688 14.8125 96.5938 14.7969ZM96.5938 16.0469C95.2969 16.0312 94.3438 16.7969 94.3594 17.9375C94.3438 19.0938 95.2969 19.8594 96.5938 19.8594C97.875 19.8594 98.8281 19.0938 98.8281 17.9375C98.8281 16.7969 97.875 16.0312 96.5938 16.0469ZM104.234 14.3281V21.4531H102.75V14.3281H104.234ZM104.234 22.0938V25.625H96.5156V26.9688H104.703V28.1562H95.0781V24.5156H102.766V23.2812H95.0312V22.0938H104.234ZM118.094 14.3281V28.3281H116.594V14.3281H118.094ZM113.922 15.8281C113.922 19.9219 112.172 23.4844 107.375 25.7812L106.594 24.5781C110.32 22.8047 112.133 20.2812 112.422 17.0156H107.266V15.8281H113.922ZM135.094 14.3281V19.75H137.344V20.9688H135.094V28.3594H133.609V14.3281H135.094ZM131.328 15.6719V16.875H126.266V23.6406C128.617 23.6328 130.383 23.5312 132.375 23.1719L132.562 24.4219C130.375 24.8125 128.516 24.8906 125.906 24.875H124.781V15.6719H131.328ZM143.156 17.8906C143.141 20.4531 144.688 23.0156 146.859 23.9844L145.969 25.1562C144.359 24.3906 143.086 22.8203 142.438 20.9062C141.781 22.9531 140.492 24.6484 138.812 25.4688L137.906 24.2188C140.109 23.2344 141.656 20.5625 141.656 17.8906V15.5H143.156V17.8906ZM149.609 14.3281V28.3594H148.125V14.3281H149.609ZM160.094 17.1562C160.094 18.4766 160.727 20.125 162.141 21.0938C163.531 20.1406 164.172 18.5156 164.172 17.1562V15.4062H165.672V17.1562C165.656 18.8594 166.578 20.6094 168.453 21.3906L167.641 22.5C166.297 21.9141 165.391 20.8203 164.906 19.5156C164.438 20.8594 163.547 22.0469 162.125 22.6719C160.695 22.0469 159.789 20.8125 159.328 19.4688C158.836 20.7578 157.93 21.8984 156.609 22.5L155.812 21.3906C157.641 20.5781 158.594 18.7188 158.609 17.1562V15.4062H160.094V17.1562ZM168.547 25.2656V26.4844H155.75V25.2656H168.547ZM181.219 14.3281V28.3281H179.719V14.3281H181.219ZM177.047 15.8281C177.047 19.9219 175.297 23.4844 170.5 25.7812L169.719 24.5781C173.445 22.8047 175.258 20.2812 175.547 17.0156H170.391V15.8281H177.047Z" fill="white"/>
</svg>
