<svg width="60" height="25" viewBox="0 0 60 25" fill="none" xmlns="http://www.w3.org/2000/svg">
<rect width="60" height="25" rx="4" fill="#50AB75"/>
<path d="M27.5322 7.75488V11.1699H29.2207V12.0078H27.5322V15.3213H26.5293V7.75488H27.5322ZM18.6709 14.166C19.5723 14.166 20.626 14.166 21.7305 14.1279V13.3027C20.4165 13.1885 19.5723 12.5728 19.5723 11.6396C19.5723 10.6113 20.626 9.97656 22.2129 9.97656C23.8125 9.97656 24.8535 10.6113 24.8662 11.6396C24.8535 12.5664 24.0283 13.1821 22.7207 13.3027V14.0898C23.7744 14.0391 24.8408 13.9565 25.8311 13.8105L25.9199 14.5342C23.4697 14.9658 20.7656 14.9785 18.7852 14.9785L18.6709 14.166ZM27.5322 15.8799V19.0283H26.5293V16.6797H20.0547V15.8799H27.5322ZM25.4883 8.7832V9.54492H18.9502V8.7832H21.7305V7.65332H22.7207V8.7832H25.4883ZM22.2129 10.6875C21.1719 10.6748 20.5244 11.043 20.5244 11.6396C20.5244 12.2236 21.1719 12.6299 22.2129 12.6172C23.2539 12.6299 23.9141 12.2236 23.9141 11.6396C23.9141 11.043 23.2539 10.6748 22.2129 10.6875ZM39.2754 7.75488V16.0068H38.2852V7.75488H39.2754ZM39.6309 17.9492V18.7871H31.9883V15.1689H32.9785V17.9492H39.6309ZM33.1816 8.54199C34.8701 8.54199 36.1396 9.68457 36.1396 11.3096C36.1396 12.96 34.8701 14.0898 33.1816 14.0898C31.4932 14.0898 30.2236 12.96 30.2236 11.3096C30.2236 9.68457 31.4932 8.54199 33.1816 8.54199ZM33.1816 9.41797C32.0391 9.41797 31.1885 10.2051 31.2012 11.3096C31.1885 12.4395 32.0391 13.2139 33.1816 13.2139C34.2988 13.2139 35.1621 12.4395 35.1621 11.3096C35.1621 10.2051 34.2988 9.41797 33.1816 9.41797Z" fill="white"/>
</svg>
