<svg width="275" height="42" viewBox="0 0 275 42" fill="none" xmlns="http://www.w3.org/2000/svg">
<rect width="275" height="42" rx="11" fill="#AAD786"/>
<path d="M111.875 14.7969C113.984 14.8125 115.531 16.1094 115.547 17.9375C115.531 19.7812 113.984 21.0625 111.875 21.0625C109.75 21.0625 108.188 19.7812 108.188 17.9375C108.188 16.1094 109.75 14.8125 111.875 14.7969ZM111.875 16.0469C110.578 16.0312 109.625 16.7969 109.641 17.9375C109.625 19.0938 110.578 19.8594 111.875 19.8594C113.156 19.8594 114.109 19.0938 114.109 17.9375C114.109 16.7969 113.156 16.0312 111.875 16.0469ZM119.516 14.3281V21.4531H118.031V14.3281H119.516ZM119.516 22.0938V25.625H111.797V26.9688H119.984V28.1562H110.359V24.5156H118.047V23.2812H110.312V22.0938H119.516ZM133.375 14.3281V28.3281H131.875V14.3281H133.375ZM129.203 15.8281C129.203 19.9219 127.453 23.4844 122.656 25.7812L121.875 24.5781C125.602 22.8047 127.414 20.2812 127.703 17.0156H122.547V15.8281H129.203ZM152.281 25.3594V26.5938H139.469V25.3594H145.109V22.4844H140.938V15.2812H142.422V17.6875H149.297V15.2812H150.766V22.4844H146.578V25.3594H152.281ZM142.422 21.2812H149.297V18.8906H142.422V21.2812ZM164.938 14.3281V28.3281H163.438V14.3281H164.938ZM160.766 15.8281C160.766 19.9219 159.016 23.4844 154.219 25.7812L153.438 24.5781C157.164 22.8047 158.977 20.2812 159.266 17.0156H154.109V15.8281H160.766Z" fill="white"/>
</svg>
