<svg width="80" height="80" viewBox="0 0 80 80" fill="none" xmlns="http://www.w3.org/2000/svg">
<path d="M36.6639 0.105689C68.7182 -2.13914 90.706 31.8164 74.5807 60.0088C59.2313 86.8455 20.1464 86.6107 5.06925 59.6171C-9.04325 34.3547 7.85632 2.1231 36.6639 0.105689Z" fill="#FD4223"/>
<path d="M68.1592 47.0469C67.5122 47.804 66.4173 48.1678 65.4687 48.2823C63.5277 48.517 57.3197 48.5331 55.3992 48.2867C50.5745 47.666 52.2769 42.7524 51.9095 39.4321C46.6779 37.9942 40.6675 37.7639 35.2603 38.1835C34.0775 38.2759 28.9176 38.8129 28.2106 39.347C27.9735 39.526 27.9984 39.5979 27.9339 39.8414C27.647 40.9536 28.1623 43.4992 27.9471 44.8241C27.7085 46.2942 26.8332 47.4166 25.466 48.002C24.4603 48.4334 16.3055 48.4393 14.8446 48.2837C11.6638 47.9419 10.7401 46.168 10.9787 43.1646C11.4677 37.0009 16.8691 31.9038 22.9819 31.5444C32.4542 31.5488 41.9249 31.559 51.3972 31.559C57.8086 31.559 61.9351 30.8988 66.5417 36.6679C68.3026 38.8745 70.2261 44.6304 68.1577 47.0483L68.1592 47.0469Z" fill="white"/>
</svg>
