<svg width="330" height="50" viewBox="0 0 330 50" fill="none" xmlns="http://www.w3.org/2000/svg">
<rect width="330" height="50" rx="11" fill="#AAD786"/>
<path d="M145.547 16.1602V33.6602H143.691V16.1602H145.547ZM131.172 28.8945C132.607 28.8848 134.258 28.875 135.977 28.8164V27.0781C133.926 26.8145 132.598 25.6133 132.617 23.8945C132.598 21.9219 134.316 20.6133 136.855 20.6133C139.414 20.6133 141.172 21.9219 141.172 23.8945C141.172 25.5938 139.844 26.7852 137.812 27.0586V28.7578C139.434 28.6895 141.074 28.5625 142.617 28.3672L142.754 29.7539C138.867 30.3984 134.629 30.4375 131.426 30.4375L131.172 28.8945ZM142.227 18.25V19.7344H131.543V18.25H135.977V16.1992H137.832V18.25H142.227ZM136.855 22.0586C135.391 22.0586 134.355 22.7812 134.375 23.8945C134.355 25.0078 135.391 25.6914 136.855 25.6914C138.359 25.6914 139.395 25.0078 139.395 23.8945C139.395 22.7812 138.359 22.0586 136.855 22.0586ZM162.91 16.1797V29.4414H161.055V27.7617H157.539V26.4531H161.055V16.1797H162.91ZM163.34 31.7852V33.2891H150.703V28.1523H152.539V31.7852H163.34ZM148.281 24.168C151.523 24.1484 155.879 24.1094 159.609 23.6406L159.727 24.9688C158.232 25.2129 156.66 25.3789 155.117 25.4766V28.8945H153.262V25.5742C151.562 25.6523 149.932 25.6621 148.516 25.6523L148.281 24.168ZM154.004 16.8438C156.562 16.8438 158.34 18.0742 158.34 19.9297C158.34 21.7852 156.562 22.9766 154.004 22.9766C151.406 22.9766 149.648 21.7852 149.648 19.9297C149.648 18.0742 151.406 16.8438 154.004 16.8438ZM154.004 18.2305C152.441 18.2109 151.387 18.875 151.406 19.9297C151.387 20.9648 152.441 21.6094 154.004 21.6094C155.508 21.6094 156.562 20.9648 156.582 19.9297C156.562 18.875 155.508 18.2109 154.004 18.2305ZM179.277 16.1602V23.1328H181.992V24.6758H179.277V33.6406H177.422V16.1602H179.277ZM174.707 17.9961C174.688 23.0547 172.461 27.5664 166.699 30.418L165.664 28.9727C170.049 26.7852 172.432 23.6211 172.812 19.5391H166.543V17.9961H174.707ZM197.441 16.1602V25.5547H195.586V16.1602H197.441ZM187.812 26.3945V28.3672H195.605V26.3945H197.441V33.4453H185.996V26.3945H187.812ZM187.812 31.9219H195.605V29.832H187.812V31.9219ZM187.949 16.9609C190.625 16.9609 192.598 18.6211 192.598 21.0234C192.598 23.4258 190.625 25.0859 187.949 25.0664C185.273 25.0859 183.281 23.4258 183.281 21.0234C183.281 18.6211 185.273 16.9609 187.949 16.9609ZM187.949 18.5234C186.289 18.5039 185.098 19.5391 185.098 21.0234C185.098 22.5273 186.289 23.543 187.949 23.543C189.59 23.543 190.781 22.5273 190.781 21.0234C190.781 19.5391 189.59 18.5039 187.949 18.5234Z" fill="white"/>
</svg>
