<svg width="330" height="50" viewBox="0 0 330 50" fill="none" xmlns="http://www.w3.org/2000/svg">
<rect width="330" height="50" rx="11" fill="#AAD786"/>
<path d="M155.732 30.0078V31.5703H139.717V30.0078H146.768V26.9414H141.67V21.375H151.943V18.9141H141.631V17.3906H153.779V22.8594H143.506V25.418H154.189V26.9414H148.604V30.0078H155.732ZM170.869 17.9375V19.8125C170.869 22.0781 170.869 24.5391 170.225 28.2695L168.33 28.0938C169.033 24.5977 169.033 22.0195 169.033 19.8125V19.4609H158.721V17.9375H170.869ZM172.959 29.6367V31.1797H157.002V29.6367H172.959ZM188.799 16.1797V28.8945H186.943V16.1797H188.799ZM189.326 31.7852V33.2891H177.354V27.6055H179.229V31.7852H189.326ZM179.307 17.3516C181.943 17.3516 183.955 19.1484 183.955 21.6875C183.955 24.2656 181.943 26.043 179.307 26.043C176.67 26.043 174.639 24.2656 174.639 21.6875C174.639 19.1484 176.67 17.3516 179.307 17.3516ZM179.307 18.9727C177.666 18.9727 176.455 20.0859 176.455 21.6875C176.455 23.3281 177.666 24.4219 179.307 24.4219C180.908 24.4219 182.139 23.3281 182.139 21.6875C182.139 20.0859 180.908 18.9727 179.307 18.9727Z" fill="white"/>
</svg>
