<svg width="80" height="80" viewBox="0 0 80 80" fill="none" xmlns="http://www.w3.org/2000/svg">
<path d="M36.6639 0.105689C68.7182 -2.13914 90.706 31.8164 74.5807 60.0088C59.2313 86.8455 20.1464 86.6107 5.06925 59.6171C-9.04325 34.3547 7.85632 2.1231 36.6639 0.105689ZM23.2013 16.9037C20.0337 17.1473 17.333 22.5804 17.0212 25.3901C16.2088 32.732 19.5916 35.1925 24.1265 39.7349C30.8248 46.4474 37.5144 53.1672 44.2083 59.8841C48.7856 63.9615 56.1998 64.186 60.8942 60.1746C63.1821 58.2203 63.7808 56.3115 61.7725 53.8157C60.8503 52.6698 55.0785 46.8949 54.0641 46.487C52.6823 45.9324 51.2726 46.1041 50.0665 46.9756C48.9818 47.7606 47.5487 49.9262 46.5621 50.5086C46.3455 50.6363 46.3118 50.7038 46.0176 50.6627C45.1408 50.5395 41.1124 47.2617 40.2122 46.4885C36.093 42.9525 32.0046 38.5304 29.32 33.806C31.403 31.1987 36.074 28.9304 33.0996 25.0717C31.9153 23.5355 27.5152 19.1471 25.9767 17.9381C25.2243 17.3468 24.1938 16.8289 23.2013 16.9052V16.9037Z" fill="#2CC805"/>
<path d="M23.1738 17.0289C24.1711 16.953 25.2066 17.4686 25.9627 18.0571C27.5086 19.2606 31.9303 23.629 33.1202 25.1582C36.1092 28.9993 31.4154 31.2573 29.3223 33.8526C32.02 38.5555 36.1283 42.9589 40.2675 46.4773C41.1736 47.247 45.2201 50.5084 46.1012 50.6325C46.3969 50.6734 46.4307 50.6062 46.6484 50.4791C47.6398 49.8993 49.0799 47.7436 50.1698 46.9622C51.3819 46.0947 52.7984 45.9238 54.187 46.4759C55.2078 46.8819 61.0062 52.6305 61.9329 53.7712C63.951 56.2555 63.3494 58.1556 61.0503 60.101C56.3331 64.0941 48.8828 63.8706 44.2832 59.8119C37.5566 53.1256 30.8344 46.4364 24.1034 39.7546C19.5479 35.2314 16.1471 32.7835 16.9635 25.4751C17.2753 22.6797 19.9907 17.2699 23.1738 17.0275V17.0289Z" fill="white"/>
</svg>
