<svg width="60" height="25" viewBox="0 0 60 25" fill="none" xmlns="http://www.w3.org/2000/svg">
<rect width="60" height="25" rx="4" fill="#50AB75"/>
<path d="M28.04 7.75488V16.0068H27.0498V7.75488H28.04ZM28.3955 17.9492V18.7871H20.7529V15.1689H21.7432V17.9492H28.3955ZM21.9463 8.54199C23.6348 8.54199 24.9043 9.68457 24.9043 11.3096C24.9043 12.96 23.6348 14.0898 21.9463 14.0898C20.2578 14.0898 18.9883 12.96 18.9883 11.3096C18.9883 9.68457 20.2578 8.54199 21.9463 8.54199ZM21.9463 9.41797C20.8037 9.41797 19.9531 10.2051 19.9658 11.3096C19.9531 12.4395 20.8037 13.2139 21.9463 13.2139C23.0635 13.2139 23.9268 12.4395 23.9268 11.3096C23.9268 10.2051 23.0635 9.41797 21.9463 9.41797ZM40.2402 13.1123V13.9375H29.957V13.1123H40.2402ZM35.0986 14.9277C37.5234 14.9277 38.9707 15.6768 38.9834 16.9717C38.9707 18.2793 37.5234 19.0029 35.0986 19.0029C32.6611 19.0029 31.2012 18.2793 31.2012 16.9717C31.2012 15.6768 32.6611 14.9277 35.0986 14.9277ZM35.0986 15.7148C33.2832 15.7275 32.2041 16.1719 32.2168 16.9717C32.2041 17.7588 33.2832 18.2031 35.0986 18.2031C36.8887 18.2031 37.9805 17.7588 37.9805 16.9717C37.9805 16.1719 36.8887 15.7275 35.0986 15.7148ZM39.3262 8.32617V9.15137H35.7461C35.7842 10.4336 37.6631 11.4111 39.6689 11.6396L39.3008 12.4395C37.4536 12.2046 35.7207 11.3794 35.0986 10.1162C34.4829 11.3794 32.7563 12.2046 30.8965 12.4395L30.541 11.6396C32.5088 11.4111 34.4004 10.4336 34.4512 9.15137H30.8965V8.32617H39.3262Z" fill="white"/>
</svg>
