<svg width="345" height="341" viewBox="0 0 345 341" fill="none" xmlns="http://www.w3.org/2000/svg">
<rect width="345" height="341" rx="13" fill="#F6F6F8"/>
<path d="M35.4844 24.9082C35.4023 24.123 34.7109 23.666 33.7383 23.666C32.6953 23.666 32.0391 24.1934 32.0391 24.9199C32.0391 25.7285 32.918 26.0332 33.5859 26.1973L34.4062 26.4199C35.4961 26.6777 36.8438 27.2754 36.8555 28.8105C36.8438 30.2402 35.707 31.2949 33.7031 31.2949C31.8047 31.2949 30.6094 30.3457 30.5273 28.7988H31.8164C31.8984 29.7246 32.707 30.1699 33.7031 30.1699C34.7812 30.1699 35.5664 29.6191 35.5781 28.7871C35.5664 28.0488 34.875 27.7441 33.9727 27.5098L32.9648 27.2402C31.6055 26.8652 30.75 26.1738 30.75 24.9902C30.75 23.5254 32.0625 22.5527 33.7734 22.5527C35.4961 22.5527 36.7031 23.5371 36.7383 24.9082H35.4844ZM41.9358 28.5059V24.791H43.178V31.1543H41.9592V30.0527H41.8889C41.5959 30.7324 40.9397 31.2363 39.9905 31.2363C38.76 31.2363 37.8928 30.416 37.8928 28.834V24.791H39.1467V28.6816C39.1467 29.5488 39.6741 30.0996 40.4358 30.0996C41.1272 30.0996 41.9358 29.5957 41.9358 28.5059ZM45.7153 27.3809V31.1543H44.4614V24.791H45.6684V25.834H45.7388C46.0434 25.1543 46.6645 24.709 47.6138 24.709C48.9263 24.709 49.7817 25.5293 49.7817 27.1113V31.1543H48.5395V27.2637C48.5395 26.3379 48.0356 25.7871 47.1919 25.7871C46.3364 25.7871 45.7153 26.3613 45.7153 27.3809Z" fill="#959595"/>
<path d="M120.07 22.6699H121.64L124.324 29.2441H124.429L127.113 22.6699H128.683V31.1543H127.453V25.0254H127.371L124.886 31.1426H123.867L121.371 25.0137H121.3V31.1543H120.07V22.6699ZM132.767 31.2832C130.963 31.2832 129.791 29.9707 129.791 28.002C129.791 26.0215 130.963 24.709 132.767 24.709C134.56 24.709 135.732 26.0215 135.732 28.002C135.732 29.9707 134.56 31.2832 132.767 31.2832ZM132.767 30.2402C133.916 30.2402 134.467 29.2207 134.467 28.002C134.467 26.7832 133.916 25.7402 132.767 25.7402C131.595 25.7402 131.045 26.7832 131.045 28.002C131.045 29.2207 131.595 30.2402 132.767 30.2402ZM137.977 27.3809V31.1543H136.723V24.791H137.93V25.834H138C138.305 25.1543 138.926 24.709 139.875 24.709C141.187 24.709 142.043 25.5293 142.043 27.1113V31.1543H140.801V27.2637C140.801 26.3379 140.297 25.7871 139.453 25.7871C138.598 25.7871 137.977 26.3613 137.977 27.3809Z" fill="#959595"/>
<path d="M74.2073 23.7832V22.6699H80.7815V23.7832H78.1448V31.1543H76.8557V23.7832H74.2073ZM84.9243 28.5059V24.791H86.1665V31.1543H84.9477V30.0527H84.8774C84.5845 30.7324 83.9282 31.2363 82.979 31.2363C81.7485 31.2363 80.8813 30.416 80.8813 28.834V24.791H82.1352V28.6816C82.1352 29.5488 82.6626 30.0996 83.4243 30.0996C84.1157 30.0996 84.9243 29.5957 84.9243 28.5059ZM90.1921 31.2832C88.3171 31.2832 87.1687 29.9941 87.1687 28.0137C87.1687 26.0566 88.3406 24.709 90.1101 24.709C91.5632 24.709 92.9343 25.6113 92.9343 27.9082V28.3535H88.4109C88.446 29.5605 89.155 30.252 90.2038 30.252C90.9187 30.252 91.3757 29.9473 91.5867 29.5605H92.8523C92.571 30.5918 91.5867 31.2832 90.1921 31.2832ZM88.4226 27.416H91.7038C91.7038 26.4434 91.0827 25.7402 90.1218 25.7402C89.1199 25.7402 88.4695 26.5137 88.4226 27.416Z" fill="#959595"/>
<path d="M168.932 31.1543L166.577 22.6699H167.936L169.588 29.2324H169.659L171.381 22.6699H172.717L174.44 29.2324H174.51L176.163 22.6699H177.522L175.167 31.1543H173.866L172.084 24.8145H172.014L170.233 31.1543H168.932ZM180.341 31.2832C178.466 31.2832 177.317 29.9941 177.317 28.0137C177.317 26.0566 178.489 24.709 180.259 24.709C181.712 24.709 183.083 25.6113 183.083 27.9082V28.3535H178.559C178.594 29.5605 179.303 30.252 180.352 30.252C181.067 30.252 181.524 29.9473 181.735 29.5605H183.001C182.719 30.5918 181.735 31.2832 180.341 31.2832ZM178.571 27.416H181.852C181.852 26.4434 181.231 25.7402 180.27 25.7402C179.268 25.7402 178.618 26.5137 178.571 27.416ZM186.464 31.2832C184.929 31.2832 183.804 30.041 183.804 27.9902C183.804 25.916 184.94 24.709 186.476 24.709C187.659 24.709 188.093 25.4238 188.315 25.8223H188.374V22.6699H189.628V31.1543H188.409V30.1582H188.315C188.081 30.5801 187.624 31.2832 186.464 31.2832ZM186.745 30.2168C187.812 30.2168 188.409 29.3027 188.409 27.9668C188.409 26.6426 187.823 25.7754 186.745 25.7754C185.632 25.7754 185.081 26.7129 185.081 27.9668C185.081 29.2441 185.655 30.2168 186.745 30.2168Z" fill="#959595"/>
<path d="M214.675 23.7832V22.6699H221.249V23.7832H218.613V31.1543H217.323V23.7832H214.675ZM223.47 27.3809V31.1543H222.216V22.6699H223.447V25.834H223.529C223.833 25.1426 224.419 24.709 225.416 24.709C226.728 24.709 227.595 25.5176 227.595 27.1113V31.1543H226.341V27.2637C226.341 26.3262 225.837 25.7871 224.994 25.7871C224.115 25.7871 223.47 26.3613 223.47 27.3809ZM232.91 28.5059V24.791H234.152V31.1543H232.933V30.0527H232.863C232.57 30.7324 231.914 31.2363 230.965 31.2363C229.734 31.2363 228.867 30.416 228.867 28.834V24.791H230.121V28.6816C230.121 29.5488 230.648 30.0996 231.41 30.0996C232.101 30.0996 232.91 29.5957 232.91 28.5059Z" fill="#959595"/>
<path d="M261.555 31.1543V22.6699H266.817V23.7832H262.844V26.3496H266.442V27.4512H262.844V31.1543H261.555ZM267.831 31.1543V24.791H269.038V25.7988H269.108C269.343 25.1191 269.976 24.6973 270.726 24.6973C270.878 24.6973 271.124 24.709 271.253 24.7207V25.916C271.147 25.8926 270.854 25.8457 270.597 25.8457C269.729 25.8457 269.085 26.4434 269.085 27.2754V31.1543H267.831ZM271.95 31.1543V24.791H273.204V31.1543H271.95ZM272.583 23.8066C272.15 23.8066 271.786 23.4785 271.786 23.0684C271.786 22.6582 272.15 22.3301 272.583 22.3301C273.005 22.3301 273.368 22.6582 273.368 23.0684C273.368 23.4785 273.005 23.8066 272.583 23.8066Z" fill="#959595"/>
<path d="M302.163 24.9082C302.081 24.123 301.389 23.666 300.417 23.666C299.374 23.666 298.717 24.1934 298.717 24.9199C298.717 25.7285 299.596 26.0332 300.264 26.1973L301.084 26.4199C302.174 26.6777 303.522 27.2754 303.534 28.8105C303.522 30.2402 302.385 31.2949 300.381 31.2949C298.483 31.2949 297.288 30.3457 297.206 28.7988H298.495C298.577 29.7246 299.385 30.1699 300.381 30.1699C301.459 30.1699 302.245 29.6191 302.256 28.7871C302.245 28.0488 301.553 27.7441 300.651 27.5098L299.643 27.2402C298.284 26.8652 297.428 26.1738 297.428 24.9902C297.428 23.5254 298.741 22.5527 300.452 22.5527C302.174 22.5527 303.381 23.5371 303.417 24.9082H302.163ZM304.278 29.3613C304.278 27.9082 305.509 27.5332 306.657 27.4512C307.079 27.4219 308.034 27.3691 308.333 27.3574L308.321 26.8535C308.321 26.1387 307.887 25.7168 307.032 25.7168C306.294 25.7168 305.848 26.0566 305.719 26.5254H304.477C304.594 25.4707 305.579 24.709 307.079 24.709C308.087 24.709 309.575 25.084 309.575 26.9238V31.1543H308.356V30.2871H308.309C308.063 30.7676 307.477 31.2949 306.423 31.2949C305.216 31.2949 304.278 30.6035 304.278 29.3613ZM305.497 29.373C305.497 29.9824 306.001 30.2988 306.704 30.2988C307.723 30.2988 308.333 29.6191 308.333 28.8574V28.2715L306.833 28.377C306.012 28.4355 305.497 28.7402 305.497 29.373ZM313.823 24.791V25.7871H312.522V29.2793C312.522 29.9941 312.886 30.123 313.284 30.1348C313.46 30.1348 313.741 30.1113 313.917 30.0996V31.1895C313.741 31.2129 313.472 31.2363 313.132 31.2363C312.147 31.2363 311.269 30.6973 311.28 29.5371V25.7871H310.343V24.791H311.28V23.2676H312.522V24.791H313.823Z" fill="#959595"/>
</svg>
