<svg width="345" height="294" viewBox="0 0 345 294" fill="none" xmlns="http://www.w3.org/2000/svg">
<rect width="345" height="294" rx="13" fill="#F6F6F8"/>
<path d="M35.4844 22.1304C35.4023 21.3452 34.7109 20.8882 33.7383 20.8882C32.6953 20.8882 32.0391 21.4155 32.0391 22.1421C32.0391 22.9507 32.918 23.2554 33.5859 23.4194L34.4062 23.6421C35.4961 23.8999 36.8438 24.4976 36.8555 26.0327C36.8438 27.4624 35.707 28.5171 33.7031 28.5171C31.8047 28.5171 30.6094 27.5679 30.5273 26.021H31.8164C31.8984 26.9468 32.707 27.3921 33.7031 27.3921C34.7812 27.3921 35.5664 26.8413 35.5781 26.0093C35.5664 25.271 34.875 24.9663 33.9727 24.7319L32.9648 24.4624C31.6055 24.0874 30.75 23.396 30.75 22.2124C30.75 20.7476 32.0625 19.7749 33.7734 19.7749C35.4961 19.7749 36.7031 20.7593 36.7383 22.1304H35.4844ZM41.9358 25.728V22.0132H43.178V28.3765H41.9592V27.2749H41.8889C41.5959 27.9546 40.9397 28.4585 39.9905 28.4585C38.76 28.4585 37.8928 27.6382 37.8928 26.0562V22.0132H39.1467V25.9038C39.1467 26.771 39.6741 27.3218 40.4358 27.3218C41.1272 27.3218 41.9358 26.8179 41.9358 25.728ZM45.7153 24.603V28.3765H44.4614V22.0132H45.6684V23.0562H45.7388C46.0434 22.3765 46.6645 21.9312 47.6138 21.9312C48.9263 21.9312 49.7817 22.7515 49.7817 24.3335V28.3765H48.5395V24.4858C48.5395 23.5601 48.0356 23.0093 47.1919 23.0093C46.3364 23.0093 45.7153 23.5835 45.7153 24.603Z" fill="#959595"/>
<path d="M120.07 19.8921H121.64L124.324 26.4663H124.429L127.113 19.8921H128.683V28.3765H127.453V22.2476H127.371L124.886 28.3647H123.867L121.371 22.2358H121.3V28.3765H120.07V19.8921ZM132.767 28.5054C130.963 28.5054 129.791 27.1929 129.791 25.2241C129.791 23.2437 130.963 21.9312 132.767 21.9312C134.56 21.9312 135.732 23.2437 135.732 25.2241C135.732 27.1929 134.56 28.5054 132.767 28.5054ZM132.767 27.4624C133.916 27.4624 134.467 26.4429 134.467 25.2241C134.467 24.0054 133.916 22.9624 132.767 22.9624C131.595 22.9624 131.045 24.0054 131.045 25.2241C131.045 26.4429 131.595 27.4624 132.767 27.4624ZM137.977 24.603V28.3765H136.723V22.0132H137.93V23.0562H138C138.305 22.3765 138.926 21.9312 139.875 21.9312C141.187 21.9312 142.043 22.7515 142.043 24.3335V28.3765H140.801V24.4858C140.801 23.5601 140.297 23.0093 139.453 23.0093C138.598 23.0093 137.977 23.5835 137.977 24.603Z" fill="#959595"/>
<path d="M74.2073 21.0054V19.8921H80.7815V21.0054H78.1448V28.3765H76.8557V21.0054H74.2073ZM84.9243 25.728V22.0132H86.1665V28.3765H84.9477V27.2749H84.8774C84.5845 27.9546 83.9282 28.4585 82.979 28.4585C81.7485 28.4585 80.8813 27.6382 80.8813 26.0562V22.0132H82.1352V25.9038C82.1352 26.771 82.6626 27.3218 83.4243 27.3218C84.1157 27.3218 84.9243 26.8179 84.9243 25.728ZM90.1921 28.5054C88.3171 28.5054 87.1687 27.2163 87.1687 25.2358C87.1687 23.2788 88.3406 21.9312 90.1101 21.9312C91.5632 21.9312 92.9343 22.8335 92.9343 25.1304V25.5757H88.4109C88.446 26.7827 89.155 27.4741 90.2038 27.4741C90.9187 27.4741 91.3757 27.1694 91.5867 26.7827H92.8523C92.571 27.814 91.5867 28.5054 90.1921 28.5054ZM88.4226 24.6382H91.7038C91.7038 23.6655 91.0827 22.9624 90.1218 22.9624C89.1199 22.9624 88.4695 23.7358 88.4226 24.6382Z" fill="#959595"/>
<path d="M168.932 28.3765L166.577 19.8921H167.936L169.588 26.4546H169.659L171.381 19.8921H172.717L174.44 26.4546H174.51L176.163 19.8921H177.522L175.167 28.3765H173.866L172.084 22.0366H172.014L170.233 28.3765H168.932ZM180.341 28.5054C178.466 28.5054 177.317 27.2163 177.317 25.2358C177.317 23.2788 178.489 21.9312 180.259 21.9312C181.712 21.9312 183.083 22.8335 183.083 25.1304V25.5757H178.559C178.594 26.7827 179.303 27.4741 180.352 27.4741C181.067 27.4741 181.524 27.1694 181.735 26.7827H183.001C182.719 27.814 181.735 28.5054 180.341 28.5054ZM178.571 24.6382H181.852C181.852 23.6655 181.231 22.9624 180.27 22.9624C179.268 22.9624 178.618 23.7358 178.571 24.6382ZM186.464 28.5054C184.929 28.5054 183.804 27.2632 183.804 25.2124C183.804 23.1382 184.94 21.9312 186.476 21.9312C187.659 21.9312 188.093 22.646 188.315 23.0444H188.374V19.8921H189.628V28.3765H188.409V27.3804H188.315C188.081 27.8022 187.624 28.5054 186.464 28.5054ZM186.745 27.439C187.812 27.439 188.409 26.5249 188.409 25.189C188.409 23.8647 187.823 22.9976 186.745 22.9976C185.632 22.9976 185.081 23.9351 185.081 25.189C185.081 26.4663 185.655 27.439 186.745 27.439Z" fill="#959595"/>
<path d="M214.675 21.0054V19.8921H221.249V21.0054H218.613V28.3765H217.323V21.0054H214.675ZM223.47 24.603V28.3765H222.216V19.8921H223.447V23.0562H223.529C223.833 22.3647 224.419 21.9312 225.416 21.9312C226.728 21.9312 227.595 22.7397 227.595 24.3335V28.3765H226.341V24.4858C226.341 23.5483 225.837 23.0093 224.994 23.0093C224.115 23.0093 223.47 23.5835 223.47 24.603ZM232.91 25.728V22.0132H234.152V28.3765H232.933V27.2749H232.863C232.57 27.9546 231.914 28.4585 230.965 28.4585C229.734 28.4585 228.867 27.6382 228.867 26.0562V22.0132H230.121V25.9038C230.121 26.771 230.648 27.3218 231.41 27.3218C232.101 27.3218 232.91 26.8179 232.91 25.728Z" fill="#959595"/>
<path d="M261.555 28.3765V19.8921H266.817V21.0054H262.844V23.5718H266.442V24.6733H262.844V28.3765H261.555ZM267.831 28.3765V22.0132H269.038V23.021H269.108C269.343 22.3413 269.976 21.9194 270.726 21.9194C270.878 21.9194 271.124 21.9312 271.253 21.9429V23.1382C271.147 23.1147 270.854 23.0679 270.597 23.0679C269.729 23.0679 269.085 23.6655 269.085 24.4976V28.3765H267.831ZM271.95 28.3765V22.0132H273.204V28.3765H271.95ZM272.583 21.0288C272.15 21.0288 271.786 20.7007 271.786 20.2905C271.786 19.8804 272.15 19.5522 272.583 19.5522C273.005 19.5522 273.368 19.8804 273.368 20.2905C273.368 20.7007 273.005 21.0288 272.583 21.0288Z" fill="#959595"/>
<path d="M302.163 22.1304C302.081 21.3452 301.389 20.8882 300.417 20.8882C299.374 20.8882 298.717 21.4155 298.717 22.1421C298.717 22.9507 299.596 23.2554 300.264 23.4194L301.084 23.6421C302.174 23.8999 303.522 24.4976 303.534 26.0327C303.522 27.4624 302.385 28.5171 300.381 28.5171C298.483 28.5171 297.288 27.5679 297.206 26.021H298.495C298.577 26.9468 299.385 27.3921 300.381 27.3921C301.459 27.3921 302.245 26.8413 302.256 26.0093C302.245 25.271 301.553 24.9663 300.651 24.7319L299.643 24.4624C298.284 24.0874 297.428 23.396 297.428 22.2124C297.428 20.7476 298.741 19.7749 300.452 19.7749C302.174 19.7749 303.381 20.7593 303.417 22.1304H302.163ZM304.278 26.5835C304.278 25.1304 305.509 24.7554 306.657 24.6733C307.079 24.644 308.034 24.5913 308.333 24.5796L308.321 24.0757C308.321 23.3608 307.887 22.939 307.032 22.939C306.294 22.939 305.848 23.2788 305.719 23.7476H304.477C304.594 22.6929 305.579 21.9312 307.079 21.9312C308.087 21.9312 309.575 22.3062 309.575 24.146V28.3765H308.356V27.5093H308.309C308.063 27.9897 307.477 28.5171 306.423 28.5171C305.216 28.5171 304.278 27.8257 304.278 26.5835ZM305.497 26.5952C305.497 27.2046 306.001 27.521 306.704 27.521C307.723 27.521 308.333 26.8413 308.333 26.0796V25.4937L306.833 25.5991C306.012 25.6577 305.497 25.9624 305.497 26.5952ZM313.823 22.0132V23.0093H312.522V26.5015C312.522 27.2163 312.886 27.3452 313.284 27.3569C313.46 27.3569 313.741 27.3335 313.917 27.3218V28.4116C313.741 28.4351 313.472 28.4585 313.132 28.4585C312.147 28.4585 311.269 27.9194 311.28 26.7593V23.0093H310.343V22.0132H311.28V20.4897H312.522V22.0132H313.823Z" fill="#959595"/>
</svg>
