<svg width="345" height="248" viewBox="0 0 345 248" fill="none" xmlns="http://www.w3.org/2000/svg">
<rect width="345" height="248" rx="13" fill="#F6F6F8"/>
<path d="M35.4844 24.1992C35.4023 23.4141 34.7109 22.957 33.7383 22.957C32.6953 22.957 32.0391 23.4844 32.0391 24.2109C32.0391 25.0195 32.918 25.3242 33.5859 25.4883L34.4062 25.7109C35.4961 25.9688 36.8438 26.5664 36.8555 28.1016C36.8438 29.5312 35.707 30.5859 33.7031 30.5859C31.8047 30.5859 30.6094 29.6367 30.5273 28.0898H31.8164C31.8984 29.0156 32.707 29.4609 33.7031 29.4609C34.7812 29.4609 35.5664 28.9102 35.5781 28.0781C35.5664 27.3398 34.875 27.0352 33.9727 26.8008L32.9648 26.5312C31.6055 26.1562 30.75 25.4648 30.75 24.2812C30.75 22.8164 32.0625 21.8438 33.7734 21.8438C35.4961 21.8438 36.7031 22.8281 36.7383 24.1992H35.4844ZM41.9358 27.7969V24.082H43.178V30.4453H41.9592V29.3438H41.8889C41.5959 30.0234 40.9397 30.5273 39.9905 30.5273C38.76 30.5273 37.8928 29.707 37.8928 28.125V24.082H39.1467V27.9727C39.1467 28.8398 39.6741 29.3906 40.4358 29.3906C41.1272 29.3906 41.9358 28.8867 41.9358 27.7969ZM45.7153 26.6719V30.4453H44.4614V24.082H45.6684V25.125H45.7388C46.0434 24.4453 46.6645 24 47.6138 24C48.9263 24 49.7817 24.8203 49.7817 26.4023V30.4453H48.5395V26.5547C48.5395 25.6289 48.0356 25.0781 47.1919 25.0781C46.3364 25.0781 45.7153 25.6523 45.7153 26.6719Z" fill="#959595"/>
<path d="M120.07 21.9609H121.64L124.324 28.5352H124.429L127.113 21.9609H128.683V30.4453H127.453V24.3164H127.371L124.886 30.4336H123.867L121.371 24.3047H121.3V30.4453H120.07V21.9609ZM132.767 30.5742C130.963 30.5742 129.791 29.2617 129.791 27.293C129.791 25.3125 130.963 24 132.767 24C134.56 24 135.732 25.3125 135.732 27.293C135.732 29.2617 134.56 30.5742 132.767 30.5742ZM132.767 29.5312C133.916 29.5312 134.467 28.5117 134.467 27.293C134.467 26.0742 133.916 25.0312 132.767 25.0312C131.595 25.0312 131.045 26.0742 131.045 27.293C131.045 28.5117 131.595 29.5312 132.767 29.5312ZM137.977 26.6719V30.4453H136.723V24.082H137.93V25.125H138C138.305 24.4453 138.926 24 139.875 24C141.187 24 142.043 24.8203 142.043 26.4023V30.4453H140.801V26.5547C140.801 25.6289 140.297 25.0781 139.453 25.0781C138.598 25.0781 137.977 25.6523 137.977 26.6719Z" fill="#959595"/>
<path d="M74.2073 23.0742V21.9609H80.7815V23.0742H78.1448V30.4453H76.8557V23.0742H74.2073ZM84.9243 27.7969V24.082H86.1665V30.4453H84.9477V29.3438H84.8774C84.5845 30.0234 83.9282 30.5273 82.979 30.5273C81.7485 30.5273 80.8813 29.707 80.8813 28.125V24.082H82.1352V27.9727C82.1352 28.8398 82.6626 29.3906 83.4243 29.3906C84.1157 29.3906 84.9243 28.8867 84.9243 27.7969ZM90.1921 30.5742C88.3171 30.5742 87.1687 29.2852 87.1687 27.3047C87.1687 25.3477 88.3406 24 90.1101 24C91.5632 24 92.9343 24.9023 92.9343 27.1992V27.6445H88.4109C88.446 28.8516 89.155 29.543 90.2038 29.543C90.9187 29.543 91.3757 29.2383 91.5867 28.8516H92.8523C92.571 29.8828 91.5867 30.5742 90.1921 30.5742ZM88.4226 26.707H91.7038C91.7038 25.7344 91.0827 25.0312 90.1218 25.0312C89.1199 25.0312 88.4695 25.8047 88.4226 26.707Z" fill="#959595"/>
<path d="M168.932 30.4453L166.577 21.9609H167.936L169.588 28.5234H169.659L171.381 21.9609H172.717L174.44 28.5234H174.51L176.163 21.9609H177.522L175.167 30.4453H173.866L172.084 24.1055H172.014L170.233 30.4453H168.932ZM180.341 30.5742C178.466 30.5742 177.317 29.2852 177.317 27.3047C177.317 25.3477 178.489 24 180.259 24C181.712 24 183.083 24.9023 183.083 27.1992V27.6445H178.559C178.594 28.8516 179.303 29.543 180.352 29.543C181.067 29.543 181.524 29.2383 181.735 28.8516H183.001C182.719 29.8828 181.735 30.5742 180.341 30.5742ZM178.571 26.707H181.852C181.852 25.7344 181.231 25.0312 180.27 25.0312C179.268 25.0312 178.618 25.8047 178.571 26.707ZM186.464 30.5742C184.929 30.5742 183.804 29.332 183.804 27.2812C183.804 25.207 184.94 24 186.476 24C187.659 24 188.093 24.7148 188.315 25.1133H188.374V21.9609H189.628V30.4453H188.409V29.4492H188.315C188.081 29.8711 187.624 30.5742 186.464 30.5742ZM186.745 29.5078C187.812 29.5078 188.409 28.5938 188.409 27.2578C188.409 25.9336 187.823 25.0664 186.745 25.0664C185.632 25.0664 185.081 26.0039 185.081 27.2578C185.081 28.5352 185.655 29.5078 186.745 29.5078Z" fill="#959595"/>
<path d="M214.675 23.0742V21.9609H221.249V23.0742H218.613V30.4453H217.323V23.0742H214.675ZM223.47 26.6719V30.4453H222.216V21.9609H223.447V25.125H223.529C223.833 24.4336 224.419 24 225.416 24C226.728 24 227.595 24.8086 227.595 26.4023V30.4453H226.341V26.5547C226.341 25.6172 225.837 25.0781 224.994 25.0781C224.115 25.0781 223.47 25.6523 223.47 26.6719ZM232.91 27.7969V24.082H234.152V30.4453H232.933V29.3438H232.863C232.57 30.0234 231.914 30.5273 230.965 30.5273C229.734 30.5273 228.867 29.707 228.867 28.125V24.082H230.121V27.9727C230.121 28.8398 230.648 29.3906 231.41 29.3906C232.101 29.3906 232.91 28.8867 232.91 27.7969Z" fill="#959595"/>
<path d="M261.555 30.4453V21.9609H266.817V23.0742H262.844V25.6406H266.442V26.7422H262.844V30.4453H261.555ZM267.831 30.4453V24.082H269.038V25.0898H269.108C269.343 24.4102 269.976 23.9883 270.726 23.9883C270.878 23.9883 271.124 24 271.253 24.0117V25.207C271.147 25.1836 270.854 25.1367 270.597 25.1367C269.729 25.1367 269.085 25.7344 269.085 26.5664V30.4453H267.831ZM271.95 30.4453V24.082H273.204V30.4453H271.95ZM272.583 23.0977C272.15 23.0977 271.786 22.7695 271.786 22.3594C271.786 21.9492 272.15 21.6211 272.583 21.6211C273.005 21.6211 273.368 21.9492 273.368 22.3594C273.368 22.7695 273.005 23.0977 272.583 23.0977Z" fill="#959595"/>
<path d="M302.163 24.1992C302.081 23.4141 301.389 22.957 300.417 22.957C299.374 22.957 298.717 23.4844 298.717 24.2109C298.717 25.0195 299.596 25.3242 300.264 25.4883L301.084 25.7109C302.174 25.9688 303.522 26.5664 303.534 28.1016C303.522 29.5312 302.385 30.5859 300.381 30.5859C298.483 30.5859 297.288 29.6367 297.206 28.0898H298.495C298.577 29.0156 299.385 29.4609 300.381 29.4609C301.459 29.4609 302.245 28.9102 302.256 28.0781C302.245 27.3398 301.553 27.0352 300.651 26.8008L299.643 26.5312C298.284 26.1562 297.428 25.4648 297.428 24.2812C297.428 22.8164 298.741 21.8438 300.452 21.8438C302.174 21.8438 303.381 22.8281 303.417 24.1992H302.163ZM304.278 28.6523C304.278 27.1992 305.509 26.8242 306.657 26.7422C307.079 26.7129 308.034 26.6602 308.333 26.6484L308.321 26.1445C308.321 25.4297 307.887 25.0078 307.032 25.0078C306.294 25.0078 305.848 25.3477 305.719 25.8164H304.477C304.594 24.7617 305.579 24 307.079 24C308.087 24 309.575 24.375 309.575 26.2148V30.4453H308.356V29.5781H308.309C308.063 30.0586 307.477 30.5859 306.423 30.5859C305.216 30.5859 304.278 29.8945 304.278 28.6523ZM305.497 28.6641C305.497 29.2734 306.001 29.5898 306.704 29.5898C307.723 29.5898 308.333 28.9102 308.333 28.1484V27.5625L306.833 27.668C306.012 27.7266 305.497 28.0312 305.497 28.6641ZM313.823 24.082V25.0781H312.522V28.5703C312.522 29.2852 312.886 29.4141 313.284 29.4258C313.46 29.4258 313.741 29.4023 313.917 29.3906V30.4805C313.741 30.5039 313.472 30.5273 313.132 30.5273C312.147 30.5273 311.269 29.9883 311.28 28.8281V25.0781H310.343V24.082H311.28V22.5586H312.522V24.082H313.823Z" fill="#959595"/>
</svg>
